<?xml version="1.0" standalone="no"?>
<!DOCTYPE svg PUBLIC "-//W3C//DTD SVG 20010904//EN"
 "http://www.w3.org/TR/2001/REC-SVG-20010904/DTD/svg10.dtd">
<svg version="1.0" xmlns="http://www.w3.org/2000/svg"
 width="64.000000pt" height="64.000000pt" viewBox="0 0 64.000000 64.000000"
 preserveAspectRatio="xMidYMid meet">

<g transform="translate(0.000000,64.000000) scale(0.100000,-0.100000)"
fill="#000000" stroke="none">
<path d="M54 587 c-2 -7 -3 -87 -1 -177 l3 -165 2 173 2 172 130 0 130 0 0
-70 0 -70 65 0 65 0 0 -90 0 -90 -29 0 c-16 0 -37 -7 -45 -16 -19 -18 -19 -20
-6 -44 6 -11 6 -21 1 -24 -5 -3 -8 -31 -6 -61 l4 -55 -154 0 -154 0 -4 45 -4
45 1 -47 1 -48 244 -3 c158 -1 248 1 256 8 9 7 12 38 11 96 -1 95 -7 104 -68
104 l-38 0 0 98 0 99 -69 66 -69 67 -131 0 c-98 0 -133 -3 -137 -13z m336 -72
l54 -55 -57 0 -57 0 0 55 c0 30 1 55 3 55 1 0 27 -25 57 -55z m165 -275 c4 -6
1 -18 -6 -26 -9 -11 -30 -14 -88 -12 -70 3 -76 5 -79 26 -3 21 -1 22 82 22 48
0 88 -5 91 -10z m0 -75 c0 -18 -8 -20 -87 -23 l-88 -3 0 26 0 26 88 -3 c79 -3
87 -5 87 -23z m0 -55 c4 -6 1 -18 -6 -26 -9 -11 -30 -14 -88 -12 -70 3 -76 5
-79 26 -3 21 -1 22 82 22 48 0 88 -5 91 -10z"/>
<path d="M117 384 c-17 -17 -6 -46 23 -58 35 -14 29 -29 -8 -19 -18 4 -23 2
-20 -8 6 -18 55 -24 74 -8 23 19 16 40 -16 52 -35 13 -40 29 -7 25 12 -2 24 2
27 7 6 11 -62 20 -73 9z"/>
<path d="M214 366 c-13 -22 -14 -29 -2 -53 7 -15 22 -29 33 -31 11 -3 24 -10
28 -18 12 -21 30 -17 24 6 -3 11 -1 23 4 26 13 8 11 68 -3 82 -21 21 -66 14
-84 -12z m64 -25 c2 -13 -1 -28 -7 -34 -17 -17 -45 15 -36 42 9 29 39 23 43
-8z"/>
<path d="M324 376 c-3 -8 -4 -31 -2 -52 3 -37 5 -39 41 -42 39 -3 53 14 15 20
-19 2 -24 10 -26 46 -3 41 -17 56 -28 28z"/>
<path d="M52 205 c0 -16 2 -22 5 -12 2 9 2 23 0 30 -3 6 -5 -1 -5 -18z"/>
</g>
</svg>
